<svg xmlns="http://www.w3.org/2000/svg" height="81.25" viewBox="0 0 81.25 81.25" width="81.25"><path d="M5 78.75c0-1.667-.833-2.5-2.5-2.5-2.445 0-2.5-.833-2.5-38.125V0h38.125C75.417 0 76.25.055 76.25 2.5c0 1.667.833 2.5 2.5 2.5 2.445 0 2.5.833 2.5 38.125V81.25H43.125C5.833 81.25 5 81.195 5 78.75zm73.75-35.625c0-22.917-.446-35.625-1.25-35.625-.803 0-1.25 12.292-1.25 34.375V76.25H41.875c-22.083 0-34.375.447-34.375 1.25 0 .804 12.708 1.25 35.625 1.25H78.75V43.125zM5 39.375V5h34.375C61.458 5 73.75 4.553 73.75 3.75c0-.804-12.708-1.25-35.625-1.25H2.5v35.625c0 22.917.446 35.625 1.25 35.625.803 0 1.25-12.292 1.25-34.375zm68.75 1.25V7.5H7.5v66.25h66.25V40.625zm-57.5 6.25V25h40l.027 4.063c.022 3.344.74 4.393 4.06 5.937 7.758 3.607 7.758 13.893 0 17.5-3.853 1.79-4.034 2.196-4.06 9.063l-.027 7.187h-40V46.875zm37.5 0V27.5h-35v38.75h35V46.875zm7.5 1.875c1.375-1.375 2.5-3.625 2.5-5 0-2.604-4.08-7.5-6.25-7.5-.694 0-1.25 3.333-1.25 7.5 0 8.003.998 9.002 5 5zM25 18.75c0-1.375.563-2.5 1.25-2.5s1.25 1.125 1.25 2.5-.563 2.5-1.25 2.5S25 20.125 25 18.75zm10-1.875c0-2.406.563-4.375 1.25-4.375s1.25 1.97 1.25 4.375-.563 4.375-1.25 4.375S35 19.28 35 16.875zm10 1.875c0-1.375.563-2.5 1.25-2.5s1.25 1.125 1.25 2.5-.563 2.5-1.25 2.5S45 20.125 45 18.75z"/></svg>