<svg xmlns="http://www.w3.org/2000/svg" height="91.25" viewBox="0 0 91.25 91.25" width="91.25"><path d="M42.17 73.598l-8.412-16.88-16.88-8.41C7.596 43.68 0 39.32 0 38.617 0 36.562 88.81-1.215 90.25.228c1.45 1.45-36.31 90.25-38.375 90.25-.71 0-5.078-7.597-9.705-16.88zM66.106 49.34c7.637-17.813 14.243-33.422 14.68-34.688.438-1.265-9.075 7.49-21.14 19.457L37.707 55.865l6.43 12.93c3.537 7.112 6.803 12.93 7.257 12.93.454 0 7.074-14.574 14.71-32.387zm10.9-39.775c-.642-.64-68.256 28.6-68.256 29.518 0 .454 5.766 3.718 12.812 7.253l12.812 6.43 21.517-21.4C67.727 19.6 77.228 9.787 77.006 9.567z"/></svg>