<svg xmlns="http://www.w3.org/2000/svg" height="100.78" viewBox="0 0 99.911003 100.77789" width="99.911"><path d="M34.908 98.472c-10.838-3.437-20.24-10.445-26.485-19.74C1.75 68.797 0 62.91 0 50.38s1.75-18.417 8.423-28.35C14.776 12.574 24.137 5.688 35.34 2.227c21.046-6.5 43.89 1.557 56.148 19.803 6.674 9.935 8.422 15.82 8.422 28.35s-1.748 18.417-8.422 28.35c-12.276 18.272-35.58 26.403-56.58 19.742zm13.172-3.09c0-1.032.844-1.876 1.875-1.876s1.875.87 1.875 1.932c0 2.358 5.813 1.548 16.068-2.238 9.415-3.476 21.42-15.422 24.812-24.694 3.58-9.785 4.443-16.25 2.166-16.25-.988 0-1.797-.844-1.797-1.875s.83-1.874 1.843-1.874c1.976 0 1.71-3.813-.878-12.5C89.335 20.19 74.3 7.466 56.517 4.243c-3.76-.68-4.687-.467-4.687 1.082 0 1.063-.844 1.932-1.875 1.932s-1.875-.87-1.875-1.932c0-1.55-.927-1.763-4.688-1.082-17.785 3.222-32.82 15.948-37.53 31.764-2.586 8.688-2.853 12.5-.877 12.5 1.014 0 1.844.844 1.844 1.875s-.81 1.875-1.798 1.875c-1.37 0-1.625 1.11-1.073 4.687 1.57 10.192 5.643 18.287 12.8 25.442 7.863 7.864 12.018 10.35 21.607 12.932 8.566 2.307 9.712 2.314 9.712.063zm-25-19.42c0-.71 4.527-8.26 10.06-16.772L43.2 43.712 58.624 33.61c15.134-9.914 18.207-11.4 18.207-8.81 0 .712-4.526 8.26-10.06 16.772l-10.06 15.48-15.423 10.1c-15.134 9.914-18.207 11.4-18.207 8.81zm29.07-21.134c.52-.46-.65-2.368-2.602-4.237l-3.55-3.4-7.144 10.738-7.145 10.737 9.747-6.5C46.82 58.59 51.63 55.29 52.15 54.828z"/></svg>