<svg xmlns="http://www.w3.org/2000/svg" height="82.5" viewBox="0 0 82.5 82.5" width="82.5"><path d="M53.878 69.853c-8.27-8.299-12.603-13.533-12.003-14.503.63-1.018 4.907 2.437 13.007 10.506l12.07 12.023 5.586-5.743c4.196-4.31 4.965-5.638 3.088-5.327-1.668.276-2.505-.285-2.516-1.685-.024-3.144-1.56-4.08-3.734-2.276-2.29 1.9-3.74.908-2.69-1.835 1.025-2.67.527-3.79-1.685-3.796-1.03-.004-1.88-.948-1.89-2.1-.023-3.1-1.553-4.08-3.65-2.342-2.85 2.366-5.05.296-2.584-2.43 2.047-2.26.674-4.7-1.79-3.178-2.186 1.352-2.885-2.057-.84-4.103 1.89-1.89 3.024-1.06 15.163 11.08l13.12 13.12-7.855 7.785-7.855 7.785-12.94-12.985zM2.5 78.98c0-.755.847-4.286 1.883-7.85 1.563-5.375 3.69-8.275 12.504-17.043l10.62-10.565-13.76-13.802-13.764-13.8 7.85-7.78L15.68.362l13.676 13.72L43.032 27.8 55.71 15.325C69.323 1.928 72.583.435 77.5 5.35c5.65 5.65 4.566 7.187-28.395 40.243-28.52 28.603-31.392 31.13-37.38 32.87-7.728 2.247-9.226 2.33-9.226.516zm42.858-34.613L73.82 15.884l-3.51-3.363-3.512-3.363L38.14 37.835 9.482 66.512l2.977 3.17c1.636 1.74 3.304 3.167 3.705 3.167.402 0 13.54-12.818 29.193-28.484zm-10.985-7.765c3.587-3.745 4.943-8.255 2.867-9.538-.605-.374-1.894-.02-2.865.786-2.735 2.27-4.945.2-2.58-2.413 2.215-2.446 1.44-3.837-2.137-3.837-1.587 0-2.19-.617-1.74-1.784 1.073-2.8-2.25-4.902-4.144-2.62-.856 1.032-2.093 1.545-2.747 1.14-.676-.417-.31-1.707.848-2.986 1.64-1.814 1.718-2.452.394-3.28-.905-.566-2.487-1.044-3.515-1.062-1.03-.02-1.927-.877-1.997-1.908-.07-1.032-.213-2.414-.317-3.073-.104-.66-2.728 1.293-5.83 4.337L4.97 15.9l12.18 12.225c6.698 6.723 12.505 12.225 12.905 12.225.4 0 2.343-1.687 4.318-3.748z"/></svg>