<svg xmlns="http://www.w3.org/2000/svg" height="91.25" viewBox="0 0 91.25 91.25" width="91.25"><path d="M33.358 90.44c-1.272-1.27-1.042-4.92.53-8.37 1.854-4.067 6.1-5.82 14.103-5.82h6.624l9.458-14.2C76.3 43.69 76.402 41.457 65.6 28.72 61.53 23.925 57.325 20 56.253 20c-1.07 0-3.09-.8-4.487-1.778-1.84-1.288-4.67-1.585-10.278-1.076-4.258.386-7.74 1.088-7.74 1.56s1.46 2.222 3.243 3.89c6.7 6.257 10.572 18.383 6.894 21.585-4.02 3.502-11.454 4.86-23.706 4.327C5.626 47.875 0 45.563 0 40.212c0-4.73 5.862-16.152 9.52-18.548 2.38-1.56 2.98-3.04 2.98-7.375 0-6.852 1.93-11.13 5.82-12.903 4.772-2.174 7.772-1.66 11.383 1.953 2.918 2.917 4.207 3.3 10.193 3.022 3.77-.174 8.962-1.393 11.54-2.708C58.204.2 63.38 2.514 65.634 10 66.79 13.84 81.757 31.28 85.766 33.46c6.64 3.607 7.17 10.264 1.252 15.745-3.75 3.473-18.27 24.374-18.27 26.298 0 .41 1.943.746 4.317.746s5.71.634 7.415 1.41c3.382 1.542 6.247 7.053 5.55 10.677-.406 2.113-2.382 2.312-26.128 2.624-14.13.186-26.074-.048-26.546-.52zM82.5 86.037c0-.806-.93-2.493-2.07-3.75C78.603 80.266 76.19 80 59.593 80c-15.712 0-19.143.337-21.056 2.068-5.44 4.925-3.496 5.432 20.84 5.432 16.837 0 23.124-.398 23.124-1.464zM71.12 64.474C78.66 52.836 79.916 50 77.525 50 76.466 50 60 74.13 60 75.682c0 .312.786.568 1.746.568s5.18-5.3 9.375-11.776zM86 46c2.296-2.297 1.785-7.01-.918-8.456-3.607-1.93-4.816-1.613-7.093 1.863-1.938 2.956-1.928 3.314.164 5.625 2.53 2.796 5.634 3.18 7.846.968zm-48.545-2.422c3.85-1.342 4.042-1.694 3.424-6.297-.36-2.68-2.14-6.822-3.956-9.202l-3.3-4.328H23.15c-11.77 0-13.16.76-17.055 9.335-3.142 6.917-2.954 8.02 1.718 10.052 4.97 2.16 23.905 2.442 29.643.442zm40.602-9.718c1.062-1.72-13.323-17.844-14.695-16.472-1.295 1.295-.197 3.067 7.263 11.727 5.17 6.002 6.235 6.68 7.432 4.745zM28.75 13.375c0-7.04-1.468-9.625-5.464-9.625-4.523 0-7.036 3.64-7.036 10.194V20h12.5v-6.625zm31.786.91c1.08-1.08 1.964-2.486 1.964-3.125C62.5 9.654 57.845 5 56.34 5c-1.927 0-5.09 3.783-5.09 6.09 0 4.836 5.687 6.794 9.286 3.195zM45.523 12.99c4.3-1.65 1.605-3.095-5.112-2.74-8.847.468-11.007 3.5-2.49 3.5 3.094 0 6.516-.342 7.603-.76z"/></svg>