<svg xmlns="http://www.w3.org/2000/svg" height="147.5" viewBox="0 0 105 147.5" width="105"><path fill="#fefefe" d="M8.75 143.37c0-4.167-.208-4.375-4.375-4.375H0V.245h96.25V4.62c0 4.167.208 4.375 4.375 4.375H105v138.75H8.75v-4.375zm92.5-65.002c0-64.792-.032-65.625-2.5-65.625-2.467 0-2.5.833-2.5 63.125v63.125H54.375c-41.042 0-41.875.05-41.875 2.5 0 2.453.833 2.5 44.375 2.5h44.375V78.368zm-92.5-6.25V8.993h41.875c41.042 0 41.875-.05 41.875-2.5 0-2.453-.833-2.5-44.375-2.5H3.75v65.625c0 64.792.032 65.625 2.5 65.625 2.467 0 2.5-.833 2.5-63.125zm83.75 1.875v-61.25h-80v122.5h80v-61.25zm-40 33.125c0-2.516.62-3.125 3.187-3.125 4.077 0 10.033-3.066 11.036-5.68.427-1.114.777-4.178.777-6.81 0-5.67-4.038-9.73-13.123-13.2l-5.723-2.186-3.458 3.313C41.656 82.82 35 84.008 35 81.25c0-.823 1.482-3.042 3.294-4.933l3.293-3.438-3.293-3.915c-4.217-5.01-4.61-14.61-.818-19.938 5.94-8.343 20.4-10.156 30.405-3.812 3.23 2.047 5.866 3.876 5.86 4.063-.005.187-4.56 5.09-10.125 10.893L53.5 70.725l6.063 2.675c3.334 1.47 7.89 4.757 10.125 7.302 3.447 3.925 4.062 5.592 4.062 11 0 10.987-6.85 18.54-16.813 18.54-3.9 0-4.437-.378-4.437-3.124zm3.159-48.166c9.657-9.74 9.605-11.154-.41-11.19-5.98-.02-12.038 2.572-13.224 5.662-2.03 5.29.58 14.32 4.14 14.32.426 0 4.698-3.957 9.493-8.792z"/></svg>