<svg xmlns="http://www.w3.org/2000/svg" height="81.25" viewBox="0 0 81.25 81.25" width="81.25"><path fill="#030303" d="M5 78.75c0-1.667-.833-2.5-2.5-2.5-2.445 0-2.5-.833-2.5-38.125V0h38.125C75.417 0 76.25.055 76.25 2.5c0 1.667.833 2.5 2.5 2.5 2.445 0 2.5.833 2.5 38.125V81.25H43.125C5.833 81.25 5 81.195 5 78.75zm73.75-35.625c0-22.917-.446-35.625-1.25-35.625-.803 0-1.25 12.292-1.25 34.375V76.25H41.875c-22.083 0-34.375.447-34.375 1.25 0 .804 12.708 1.25 35.625 1.25H78.75V43.125zM5 39.375V5h34.375C61.458 5 73.75 4.553 73.75 3.75c0-.804-12.708-1.25-35.625-1.25H2.5v35.625c0 22.917.446 35.625 1.25 35.625.803 0 1.25-12.292 1.25-34.375zm68.75 1.25V7.5H7.5v66.25h66.25V40.625zm-30.935 14.09L35.03 46.93l-6.86 6.774c-3.772 3.726-7.268 6.365-7.77 5.864-.5-.5 2.576-4.394 6.835-8.653l7.743-7.743 2.78 2.78 2.78 2.78 4.753-4.64 4.754-4.643 6.48 6.48c3.565 3.564 6.075 6.887 5.578 7.385s-3.418-1.563-6.49-4.578l-5.585-5.48-3.78 3.62-3.78 3.62 5.017 5.112c4.88 4.97 6.01 6.89 4.066 6.89-.523 0-4.454-3.504-8.735-7.785zm2.9-22.93C41.922 27.996 44.666 21.25 50 21.25c2.983 0 6.25 3.268 6.25 6.25s-3.267 6.25-6.25 6.25c-1.277 0-3.205-.884-4.286-1.964zm7.41-4.285c0-2.29-.752-3.232-2.818-3.525-1.69-.24-3.12.385-3.57 1.562-1.246 3.244.5 5.924 3.57 5.488 2.066-.293 2.818-1.234 2.818-3.525z"/></svg>