<svg xmlns="http://www.w3.org/2000/svg" height="81.25" viewBox="0 0 81.25 81.25" width="81.25"><path d="M5 78.406c0-1.667-.833-2.5-2.5-2.5-2.445 0-2.5-.834-2.5-38.125V-.343h38.125c37.292 0 38.125.055 38.125 2.5 0 1.667.833 2.5 2.5 2.5 2.445 0 2.5.833 2.5 38.125v38.126H43.125C5.833 80.906 5 80.85 5 78.406zM78.75 42.78c0-22.916-.446-35.624-1.25-35.624-.803 0-1.25 12.292-1.25 34.375v34.376H41.875c-22.083 0-34.375.447-34.375 1.25 0 .804 12.708 1.25 35.625 1.25H78.75V42.78zM5 39.03V4.657h34.375c22.083 0 34.375-.447 34.375-1.25 0-.804-12.708-1.25-35.625-1.25H2.5V37.78c0 22.918.446 35.626 1.25 35.626.803 0 1.25-12.292 1.25-34.375zm68.75 1.25V7.157H7.5v66.251h66.25V40.28zm-50 0V12.157H57.5V68.407H23.75V40.28zm31.25 0V14.657H26.25V65.907H55V40.28zM37.915 62.685c-.416-1.085.084-2.812 1.11-3.84 1.657-1.656 2.094-1.64 3.87.134 1.1 1.1 1.68 2.828 1.293 3.84-.94 2.446-5.32 2.353-6.273-.134zm4.585-1.08c0-.303-.562-.898-1.25-1.323s-1.25-.176-1.25.552.563 1.324 1.25 1.324 1.25-.248 1.25-.55zm-5-43.2c0-.686 1.406-1.25 3.125-1.25s3.125.564 3.125 1.25-1.406 1.25-3.125 1.25-3.125-.56-3.125-1.25z"/></svg>