<svg xmlns="http://www.w3.org/2000/svg" height="81.25" viewBox="0 0 81.25 81.25" width="81.25"><path d="M5 78.75c0-1.667-.833-2.5-2.5-2.5-2.445 0-2.5-.833-2.5-38.125V0h38.125C75.417 0 76.25.055 76.25 2.5c0 1.667.833 2.5 2.5 2.5 2.445 0 2.5.833 2.5 38.125V81.25H43.125C5.833 81.25 5 81.195 5 78.75zm73.75-35.625c0-22.917-.446-35.625-1.25-35.625-.803 0-1.25 12.292-1.25 34.375V76.25H41.875c-22.083 0-34.375.447-34.375 1.25 0 .804 12.708 1.25 35.625 1.25H78.75V43.125zM5 39.375V5h34.375C61.458 5 73.75 4.553 73.75 3.75c0-.804-12.708-1.25-35.625-1.25H2.5v35.625c0 22.917.446 35.625 1.25 35.625.803 0 1.25-12.292 1.25-34.375zm68.75 1.25V7.5H7.5v66.25h66.25V40.625zm-44.752 18.64c-6.304-3.142-13.06-9.715-16.4-15.958-1.478-2.76-1.253-3.62 2.29-8.77 8.814-12.81 21.17-18.083 34.015-14.515 5.304 1.473 14.79 9.445 18.628 15.653l2.69 4.353-3.21 5.48c-5.768 9.84-16.793 16.912-26.452 16.964-2.993.016-7.724-1.296-11.56-3.208zm25.07-3.778c2.875-2.02 7.07-6.09 9.32-9.04 3.82-5.008 3.975-5.585 2.346-8.717C62.864 32.21 55.02 25.215 49.22 23c-11.01-4.205-22.427.094-31.363 11.81-4.65 6.096-4.473 7.01 2.92 15.195 9.682 10.716 22.776 12.872 33.29 5.482zm-18.13-9.337c-2.713-1.58-2.96-7.4-.313-7.4 1.042 0 1.875-1.11 1.875-2.5 0-2.802 3.546-3.366 7.582-1.206 3.344 1.79 3.344 9.373 0 11.162-3.02 1.617-6.307 1.597-9.145-.056zm8.437-5.508c0-2.56-.686-3.865-2.187-4.154-1.31-.252-2.188.342-2.188 1.483 0 1.05-.923 2.422-2.05 3.053-2.95 1.65-.835 4.192 3.105 3.736 2.765-.32 3.32-1.008 3.32-4.118z"/></svg>