<svg xmlns="http://www.w3.org/2000/svg" height="92.5" viewBox="0 0 91.25 92.5" width="91.25"><path d="M2.348 90c-3.054-3.054-3.144-5.4-.386-10.07 1.986-3.36 1.986-3.72 0-5.915-2.926-3.234-2.69-4.524 1.765-9.596 4.246-4.837 7.79-5.56 11.37-2.32 2.202 1.994 2.613 1.818 8.015-3.437 3.13-3.046 8.492-8.747 11.914-12.67 5.626-6.448 6.075-7.4 4.7-9.97-4.5-8.41-3.345-19.014 2.9-26.59C46.933 4.206 54.72.07 60.326.026c15.78-.12 31.96 17.16 30.48 32.552C89.263 48.66 72.875 58.88 57.84 53.14l-5.727-2.187L31.21 71.726C9.333 93.464 7.175 94.83 2.345 90zm26.745-21.554c19.41-20.26 19.448-20.31 16.97-22.788-2.48-2.48-2.528-2.442-22.475 17.477C5.253 81.442 2.072 85.558 4.43 87.917c2.51 2.508 7.005-1.04 24.663-19.47zm-17.607 1.8c2.606-2.72 3.02-3.836 1.86-5-2.31-2.308-4.328-1.8-7.164 1.805-1.986 2.525-2.265 3.703-1.188 5 1.97 2.374 2.68 2.177 6.492-1.803zm65.32-22.103c7.036-4.124 11.113-12.21 10.207-20.245-.785-6.964-5.886-14.565-13.245-19.738-4.48-3.15-6.593-3.785-12.563-3.785-5.936 0-7.972.606-11.77 3.502-9.194 7.013-11.376 18.594-5.42 28.76C51.79 49.9 65.56 54.733 76.805 48.142zm-17.93-5.74c-6.345-3.2-11.53-11.14-11.53-17.657 0-5.33 3.86-10.648 9.416-12.97 8.338-3.483 19.97 3.588 23.103 14.044 1.294 4.32 1.205 5.733-.607 9.552-4.05 8.532-11.983 11.27-20.382 7.03zm15.034-6.27c3.98-4.252 4.19-6.04 1.408-11.906-4.464-9.407-14.874-12.438-21.153-6.16-6.107 6.108-2.222 17.208 7.495 21.414 4.85 2.1 7.94 1.256 12.25-3.348z"/></svg>